<?xml version="1.0" encoding="UTF-8"?>
<svg width="167px" height="41px" viewBox="0 0 167 41" version="1.1" xmlns="http://www.w3.org/2000/svg" xmlns:xlink="http://www.w3.org/1999/xlink">
    <!-- Generator: Sketch 50.2 (55047) - http://www.bohemiancoding.com/sketch -->
    <title>Logo</title>
    <desc>Created with Sketch.</desc>
    <defs></defs>
    <g id="Page-1" stroke="none" stroke-width="1" fill="none" fill-rule="evenodd">
        <g id="Desktop-HD" transform="translate(-637.000000, -97.000000)">
            <g id="Logo" transform="translate(631.000000, 89.000000)">
                <path d="M24.7273486,30.9205313 L24.5533208,30.9205313 C24.3676903,32.1494749 23.7411965,33.1697147 22.6738208,33.9812813 C21.6064451,34.7928478 20.1562281,35.198625 18.3231264,35.198625 C16.9308972,35.198625 15.6315028,34.9319714 14.4249042,34.3986563 C13.2183055,33.8653411 12.1625476,33.076974 11.2575986,32.0335313 C10.3526496,30.9900885 9.64494376,29.6916015 9.13445972,28.1380313 C8.62397569,26.584461 8.3687375,24.7874477 8.3687375,22.7469375 C8.3687375,20.7064273 8.63557742,18.8978204 9.16926528,17.3210625 C9.70295313,15.7443046 10.4512651,14.4226303 11.4142236,13.356 C12.3771821,12.2893697 13.5315548,11.4778153 14.8773764,10.9213125 C16.2231979,10.3648097 17.7198219,10.0865625 19.3672931,10.0865625 C21.5484521,10.0865625 23.4279333,10.5561047 25.0057931,11.4952031 C26.5836528,12.4343016 27.8250385,13.8429281 28.7299875,15.721125 L24.4140986,18.1905937 C24.0428375,17.2399015 23.4627507,16.4341439 22.6738208,15.7732969 C21.884891,15.1124498 20.7827261,14.7820312 19.3672931,14.7820312 C17.7198219,14.7820312 16.4088257,15.2573702 15.4342653,16.2080625 C14.4597048,17.1587548 13.9724319,18.6543335 13.9724319,20.6948438 L13.9724319,24.5903438 C13.9724319,26.6076663 14.4597048,28.0974483 15.4342653,29.0597344 C16.4088257,30.0220204 17.7198219,30.5031563 19.3672931,30.5031563 C20.017,30.5031563 20.631892,30.4277976 21.2119875,30.2770781 C21.792083,30.1263586 22.3025594,29.8944859 22.7434319,29.5814531 C23.1843045,29.2684203 23.5265557,28.8916272 23.7701958,28.4510625 C24.0138359,28.0104978 24.1356542,27.4887843 24.1356542,26.8859063 L24.1356542,25.6685625 L19.6109319,25.6685625 L19.6109319,21.2513438 L29.1824597,21.2513438 L29.1824597,34.78125 L24.7273486,34.78125 L24.7273486,30.9205313 Z M37.142695,14.5733438 C36.0985231,14.5733438 35.3386094,14.3356743 34.8629311,13.8603281 C34.3872528,13.384982 34.1494172,12.7763162 34.1494172,12.0343125 L34.1494172,11.269125 C34.1494172,10.5271213 34.3872528,9.9184555 34.8629311,9.44310937 C35.3386094,8.96776325 36.0985231,8.73009375 37.142695,8.73009375 C38.1868669,8.73009375 38.9467806,8.96776325 39.4224589,9.44310937 C39.8981372,9.9184555 40.1359728,10.5271213 40.1359728,11.269125 L40.1359728,12.0343125 C40.1359728,12.7763162 39.8981372,13.384982 39.4224589,13.8603281 C38.9467806,14.3356743 38.1868669,14.5733438 37.142695,14.5733438 Z M34.5670839,16.5210938 L39.7183061,16.5210938 L39.7183061,34.78125 L34.5670839,34.78125 L34.5670839,16.5210938 Z M45.9382636,20.5209375 L43.3626525,20.5209375 L43.3626525,16.5210938 L45.9382636,16.5210938 L45.9382636,14.3646563 C45.9382636,12.6023974 46.4023331,11.2749263 47.3304859,10.3822031 C48.2586386,9.48947991 49.6160417,9.043125 51.4027359,9.043125 L54.7440692,9.043125 L54.7440692,13.0429688 L51.0894859,13.0429688 L51.0894859,16.5210938 L54.7440692,16.5210938 L54.7440692,20.5209375 L51.0894859,20.5209375 L51.0894859,34.78125 L45.9382636,34.78125 L45.9382636,20.5209375 Z M58.1099711,9.043125 L63.2611934,9.043125 L63.2611934,19.5818438 L63.4352211,19.5818438 C63.6904632,18.5615886 64.2763508,17.726847 65.1929017,17.0775938 C66.1094526,16.4283405 67.1594097,16.1037188 68.3428045,16.1037188 C70.6631864,16.1037188 72.4150486,16.9152731 73.5984434,18.5384063 C74.7818382,20.1615394 75.3735267,22.5266407 75.3735267,25.6337813 C75.3735267,28.7409218 74.7818382,31.11182 73.5984434,32.7465469 C72.4150486,34.3812738 70.6631864,35.198625 68.3428045,35.198625 C67.7395052,35.198625 67.1710201,35.1116727 66.6373323,34.9377656 C66.1036444,34.7638585 65.6221724,34.5203922 65.1929017,34.2073594 C64.763631,33.8943266 64.3981764,33.5233303 64.0965267,33.0943594 C63.794877,32.6653885 63.5744441,32.2074399 63.4352211,31.7205 L63.2611934,31.7205 L63.2611934,34.78125 L58.1099711,34.78125 L58.1099711,9.043125 Z M66.6373323,31.024875 C67.6118927,31.024875 68.4182133,30.6828628 69.0563184,29.9988281 C69.6944234,29.3147935 70.0134711,28.3930995 70.0134711,27.2337188 L70.0134711,24.068625 C70.0134711,22.9092442 69.6944234,21.9875503 69.0563184,21.3035156 C68.4182133,20.619481 67.6118927,20.2774688 66.6373323,20.2774688 C65.6627718,20.2774688 64.8564512,20.5151382 64.2183461,20.9904844 C63.5802411,21.4658305 63.2611934,22.1208708 63.2611934,22.955625 L63.2611934,28.3467188 C63.2611934,29.1814729 63.5802411,29.8365132 64.2183461,30.3118594 C64.8564512,30.7872055 65.6627718,31.024875 66.6373323,31.024875 Z M90.5733175,31.7205 L90.3992898,31.7205 C90.236863,32.1842523 90.0222309,32.6248104 89.755387,33.0421875 C89.4885431,33.4595646 89.1462919,33.8305609 88.7286231,34.1551875 C88.3109543,34.4798141 87.8178806,34.7348741 87.249387,34.920375 C86.6808934,35.1058759 86.0253953,35.198625 85.2828731,35.198625 C83.4033637,35.198625 81.9821511,34.5783656 81.0191925,33.3378281 C80.056234,32.0972907 79.574762,30.3176678 79.574762,27.9989063 L79.574762,16.5210938 L84.7259842,16.5210938 L84.7259842,27.54675 C84.7259842,28.6597556 84.9232137,29.5176845 85.3176787,30.1205625 C85.7121436,30.7234405 86.3850443,31.024875 87.3364009,31.024875 C87.7308658,31.024875 88.1253248,30.9669068 88.5197898,30.8509688 C88.9142547,30.7350307 89.2623068,30.566923 89.5639564,30.3466406 C89.8656061,30.1263583 90.1092425,29.8539079 90.2948731,29.5292813 C90.4805037,29.2046546 90.5733175,28.8220647 90.5733175,28.3815 L90.5733175,16.5210938 L95.7245398,16.5210938 L95.7245398,34.78125 L90.5733175,34.78125 L90.5733175,31.7205 Z M108.418331,35.198625 C107.049305,35.198625 105.831123,34.9725491 104.763747,34.5203906 C103.696372,34.0682321 102.803038,33.4305822 102.083719,32.6074219 C101.364401,31.7842615 100.81912,30.7814122 100.447858,29.5988438 C100.076597,28.4162753 99.8909695,27.0946011 99.8909695,25.6337813 C99.8909695,24.1729614 100.076597,22.857084 100.447858,21.6861094 C100.81912,20.5151348 101.364401,19.5122854 102.083719,18.6775313 C102.803038,17.8427771 103.696372,17.2051272 104.763747,16.7645625 C105.831123,16.3239978 107.049305,16.1037187 108.418331,16.1037187 C110.274636,16.1037187 111.823468,16.5210896 113.064872,17.3558437 C114.306277,18.1905979 115.193809,19.361555 115.727497,20.86875 L111.550831,22.677375 C111.388404,21.9817465 111.051954,21.3904712 110.541469,20.9035313 C110.030985,20.4165913 109.32328,20.173125 108.418331,20.173125 C107.374159,20.173125 106.585241,20.5151372 106.051553,21.1991719 C105.517865,21.8832065 105.251025,22.8049005 105.251025,23.9642813 L105.251025,27.3728438 C105.251025,28.5322245 105.517865,29.4539185 106.051553,30.1379531 C106.585241,30.8219878 107.374159,31.164 108.418331,31.164 C109.439299,31.164 110.199212,30.8915496 110.698094,30.3466406 C111.196977,29.8017317 111.574033,29.158285 111.829275,28.4162813 L115.831914,30.1553438 C115.228615,31.8944149 114.294675,33.1697147 113.030067,33.9812813 C111.765459,34.7928478 110.228229,35.198625 108.418331,35.198625 Z M119.545871,9.043125 L124.697094,9.043125 L124.697094,24.2425313 L124.905927,24.2425313 L127.168288,20.86875 L130.822871,16.5210938 L136.530983,16.5210938 L130.44001,23.512125 L137.227094,34.78125 L131.101316,34.78125 L126.99426,27.0598125 L124.697094,29.633625 L124.697094,34.78125 L119.545871,34.78125 L119.545871,9.043125 Z M146.82319,35.198625 C145.430961,35.198625 144.189575,34.9725491 143.098996,34.5203906 C142.008416,34.0682321 141.086078,33.4305822 140.331954,32.6074219 C139.57783,31.7842615 139.009345,30.7814122 138.626482,29.5988438 C138.243619,28.4162753 138.05219,27.0946011 138.05219,25.6337813 C138.05219,24.1961491 138.237818,22.8918652 138.609079,21.7208906 C138.98034,20.549916 139.531423,19.5470667 140.262343,18.7123125 C140.993263,17.8775583 141.892398,17.2341116 142.959773,16.7819531 C144.027149,16.3297946 145.245331,16.1037187 146.614357,16.1037187 C148.122605,16.1037187 149.416199,16.3587787 150.495176,16.8689062 C151.574154,17.3790338 152.455886,18.0630582 153.140398,18.921 C153.824911,19.7789418 154.323786,20.7701975 154.637037,21.8947969 C154.950289,23.0193962 155.106912,24.1961501 155.106912,25.4250938 L155.106912,26.9554688 L143.37744,26.9554688 L143.37744,27.2337188 C143.37744,28.4394748 143.702289,29.3959496 144.351996,30.1031719 C145.001703,30.8103942 146.022655,31.164 147.414885,31.164 C148.48226,31.164 149.35239,30.9495178 150.025301,30.5205469 C150.698212,30.091576 151.324706,29.5756593 151.904801,28.9727813 L154.480412,32.1726563 C153.668279,33.1233485 152.60672,33.8653411 151.295704,34.3986563 C149.984688,34.9319714 148.493865,35.198625 146.82319,35.198625 Z M146.718773,19.894875 C145.674602,19.894875 144.856679,20.2368872 144.264982,20.9209219 C143.673284,21.6049565 143.37744,22.5150568 143.37744,23.65125 L143.37744,23.9295 L149.781662,23.9295 L149.781662,23.6164688 C149.781662,22.5034632 149.532225,21.6049565 149.033343,20.9209219 C148.534461,20.2368872 147.762945,19.894875 146.718773,19.894875 Z M165.677564,34.78125 C163.89087,34.78125 162.539268,34.3290983 161.622717,33.4247813 C160.706166,32.5204642 160.247898,31.1987899 160.247898,29.4597188 L160.247898,20.5209375 L157.672286,20.5209375 L157.672286,16.5210938 L158.960092,16.5210938 C159.656207,16.5210938 160.131878,16.3529861 160.38712,16.0167656 C160.642362,15.6805452 160.769981,15.1994094 160.769981,14.5733437 L160.769981,11.5821562 L165.39912,11.5821562 L165.39912,16.5210938 L169.018898,16.5210938 L169.018898,20.5209375 L165.39912,20.5209375 L165.39912,30.7814063 L168.740453,30.7814063 L168.740453,34.78125 L165.677564,34.78125 Z" id="Gifbucket" fill="#FFFFFF"></path>
                <rect id="Rectangle" fill="#FF387D" x="6.62962963" y="44.71875" width="33.1481481" height="3.3125"></rect>
                <rect id="Rectangle-Copy" fill="#3BC9DF" x="39.7777778" y="44.71875" width="33.1481481" height="3.3125"></rect>
                <rect id="Rectangle-Copy-2" fill="#9D5EFF" x="72.9259259" y="44.71875" width="33.1481481" height="3.3125"></rect>
                <rect id="Rectangle-Copy-3" fill="#45FF38" x="106.074074" y="44.71875" width="33.1481481" height="3.3125"></rect>
                <rect id="Rectangle-Copy-4" fill="#FF8A06" x="139.222222" y="44.71875" width="33.1481481" height="3.3125"></rect>
            </g>
        </g>
    </g>
</svg>